<?xml version="1.0" encoding="utf-8"?>
<!-- Generator: Adobe Illustrator 26.4.1, SVG Export Plug-In . SVG Version: 6.00 Build 0)  -->
<svg version="1.1" id="Layer_1" xmlns="http://www.w3.org/2000/svg" xmlns:xlink="http://www.w3.org/1999/xlink" x="0px" y="0px"
	 viewBox="0 0 1080 1080" style="enable-background:new 0 0 1080 1080;" xml:space="preserve">
<style type="text/css">
	.st0{fill:#F0F2F1;}
	.st1{fill:#000326;}
	.st2{fill:#9FC5D6;}
	.st3{fill:#393F59;}
	.st4{fill:#81D9DA;}
	.st5{fill:#00C561;}
	.st6{fill:#00B161;}
	.st7{fill:#00CE61;}
</style>
<g>
	<g>
		<g>
			<g>
				<path class="st0" d="M623.11,150.91l-65.5,87.63v89.32l-34.95,46.77l-315.6,128.7c-70.17-64.39-86.17-150.06-28.64-226.13
					C256.85,173.5,448.08,121.67,623.11,150.91z"/>
				<path class="st1" d="M207.07,505.33c-0.49,0-0.98-0.18-1.35-0.53c-35.48-32.55-57.2-70.55-62.83-109.88
					c-5.83-40.73,5.91-81.86,33.95-118.93c37.93-50.15,104.4-90.53,187.17-113.72c81.74-22.9,173.88-27.63,259.44-13.34
					c0.69,0.11,1.27,0.58,1.53,1.23c0.26,0.65,0.16,1.38-0.25,1.94l-65.1,87.1v88.65c0,0.43-0.14,0.85-0.4,1.2l-34.95,46.77
					c-0.22,0.29-0.51,0.52-0.85,0.65l-315.6,128.7C207.58,505.28,207.32,505.33,207.07,505.33z M524.3,144.84
					c-54.37,0-108.78,7.17-159.21,21.29c-81.94,22.95-147.66,62.83-185.06,112.28C125.9,349.97,136.45,435.16,207.49,501
					L521.4,372.99l34.22-45.79v-88.65c0-0.43,0.14-0.85,0.4-1.2l63.52-85C588.37,147.33,556.34,144.84,524.3,144.84z"/>
			</g>
			<g>
				<polygon class="st2" points="557.62,327.86 557.62,546.76 536.83,539.95 522.67,545.64 522.67,374.63 				"/>
				<path class="st3" d="M557.62,548.76c-0.21,0-0.42-0.03-0.62-0.1l-20.1-6.58l-13.49,5.42c-0.62,0.25-1.31,0.17-1.87-0.2
					c-0.55-0.37-0.88-0.99-0.88-1.66V374.63c0-0.43,0.14-0.85,0.4-1.2l34.95-46.77c0.52-0.69,1.42-0.97,2.23-0.7
					c0.82,0.27,1.37,1.04,1.37,1.9v218.9c0,0.64-0.31,1.24-0.83,1.62C558.45,548.63,558.03,548.76,557.62,548.76z M536.83,537.95
					c0.21,0,0.42,0.03,0.62,0.1l18.17,5.95V333.88l-30.95,41.42v167.39l11.42-4.59C536.32,538,536.57,537.95,536.83,537.95z"/>
			</g>
			<g>
				<polygon class="st4" points="522.67,374.63 522.67,545.64 222.78,666.11 222.78,923.03 207.07,929.44 207.07,503.33 				"/>
				<path class="st3" d="M207.07,931.44c-0.39,0-0.78-0.12-1.12-0.34c-0.55-0.37-0.88-0.99-0.88-1.66V503.33
					c0-0.81,0.49-1.54,1.24-1.85l315.6-128.7c0.62-0.25,1.32-0.18,1.87,0.19c0.55,0.37,0.88,0.99,0.88,1.66v171.01
					c0,0.82-0.5,1.55-1.25,1.86L224.78,667.46v255.57c0,0.81-0.49,1.54-1.24,1.85l-15.71,6.41
					C207.58,931.39,207.32,931.44,207.07,931.44z M209.07,504.68v421.79l11.71-4.78V666.11c0-0.82,0.5-1.55,1.25-1.86l298.63-119.97
					V377.61L209.07,504.68z"/>
			</g>
		</g>
		<g>
			<path class="st2" d="M143.42,800.68c-0.05,0,0,4.96,0-426.11c0,45.14,21.47,90.06,63.65,128.76v426.11
				C164.89,890.74,143.42,845.81,143.42,800.68z"/>
			<path class="st3" d="M207.07,931.44c-0.49,0-0.98-0.18-1.35-0.53c-42.06-38.6-64.29-83.63-64.29-130.23h0.02
				c-0.03-0.34-0.03-0.71-0.03-1.12c0-1.04,0-3.02-0.01-6.81c0-7.57,0-22.36,0-51.23c0-55.1,0.02-161.51,0.02-366.95
				c0-1.1,0.9-2,2-2s2,0.9,2,2c0,45.45,21.79,89.47,63,127.29c0.41,0.38,0.65,0.91,0.65,1.47v426.11c0,0.79-0.47,1.51-1.2,1.83
				C207.61,931.39,207.34,931.44,207.07,931.44z M145.41,800.47c0.01,0.07,0.01,0.14,0.01,0.21c0,44.21,20.6,87.05,59.64,124.16
				V504.21c-31.35-28.96-51.57-61.5-59.65-95.61c0,183.32-0.01,280.94-0.02,332.92C145.4,791.22,145.4,799.45,145.41,800.47z"/>
		</g>
		<path class="st3" d="M207.07,935.47c-0.5,0-1-0.06-1.52-0.2c-0.09-0.02-0.23-0.06-0.31-0.09c-0.47-0.15-0.88-0.34-1.27-0.57
			c-0.11-0.07-0.22-0.14-0.33-0.21l0,0c-0.01-0.01-0.02-0.01-0.03-0.02c-0.04-0.03-0.08-0.06-0.12-0.08l0,0
			c-0.02-0.02-0.05-0.04-0.07-0.06c-0.14-0.1-0.3-0.24-0.45-0.38c-42.89-39.35-65.57-85.41-65.57-133.18c0-0.01,0-0.02,0-0.03
			c-0.01-0.29-0.01-0.64-0.02-1.05c0-1.04,0-3-0.01-6.75c0-6.93,0-19.99,0-44.57l0-6.06c0.01-54.9,0.02-161.34,0.02-367.64
			c0-0.14,0.01-0.29,0.02-0.43c0.09-34.6,12.61-69.37,36.21-100.57c19.64-25.97,46.44-49.23,79.67-69.13
			c31.89-19.1,68.78-34.59,109.63-46.04c82.3-23.05,175.05-27.82,261.19-13.44c2.06,0.34,3.82,1.76,4.6,3.69c0,0,0,0.01,0.01,0.01
			c0.77,1.93,0.48,4.17-0.77,5.84l-64.3,86.03v306.21c0,1.92-0.93,3.74-2.48,4.87c-1.58,1.14-3.6,1.45-5.42,0.85l-18.71-6.13
			l-12.12,4.87L228.8,670.18v252.85c0,2.46-1.47,4.65-3.75,5.58l-15.71,6.41c-0.17,0.07-0.4,0.15-0.6,0.21
			c-0.15,0.04-0.31,0.09-0.47,0.12l0,0C207.87,935.43,207.47,935.47,207.07,935.47z M207.34,930.43h0.01H207.34z M147.4,800.81
			c0.04,44.16,20.95,86.99,60.51,124l10.89-4.44V666.8c0-2.04,1.24-3.88,3.14-4.64L535,536.4c1.09-0.44,2.3-0.48,3.42-0.11
			l15.22,4.99V238.88c0-1.08,0.35-2.13,1-2.99l61.36-82.1c-82.87-12.86-171.53-7.85-250.38,14.24c-40,11.2-76.06,26.34-107.19,44.99
			c-32.12,19.24-57.97,41.64-76.83,66.58c-22.34,29.54-34.16,62.32-34.19,94.81c0,0.13-0.01,0.27-0.02,0.4
			c0,206.16-0.01,312.52-0.02,367.4l0,6.06c0,24.58,0,37.63,0,44.57c0,3.74,0,5.69,0.01,6.71c0,0.31,0,0.55,0.01,0.73
			C147.4,800.46,147.4,800.63,147.4,800.81z M622.46,154.83L622.46,154.83L622.46,154.83z"/>
	</g>
	<g>
		<g>
			<path class="st5" d="M890.88,349.34l-333.26-110.8C726.73,12.28,714.43,27.26,716.88,27.96
				C912.3,83.27,995.99,231.1,890.88,349.34z"/>
			<path class="st1" d="M890.88,351.34c-0.21,0-0.42-0.03-0.63-0.1l-333.26-110.8c-0.61-0.2-1.08-0.69-1.28-1.3s-0.08-1.28,0.31-1.8
				c46.37-62.04,78.66-105.35,102.23-136.97c55.71-74.73,55.71-74.73,57.86-74.84c0.61-0.04,1.18,0.17,1.68,0.61
				C830.15,58.03,910.42,122.3,932.56,198.1c7.48,25.61,8.02,51.5,1.6,76.98c-6.67,26.46-20.73,51.89-41.79,75.59
				C891.98,351.1,891.44,351.34,890.88,351.34z M560.88,237.52l329.37,109.5c40.09-45.61,53.4-96.69,38.47-147.8
				C906.95,124.68,827.58,61.38,716.38,29.9c-3,3.21-15.01,19.32-54.93,72.86C638.16,134.01,606.36,176.66,560.88,237.52z"/>
		</g>
		<g>
			<path class="st6" d="M936.55,807.69c0,41.62-18.24,78.94-45.67,109.79V349.34c27.74-31.2,45.67-68.54,45.67-109.79
				C936.55,428.93,936.55,618.31,936.55,807.69z"/>
			<path class="st1" d="M890.88,919.48c-0.24,0-0.48-0.04-0.71-0.13c-0.78-0.29-1.29-1.04-1.29-1.87V349.34
				c0-0.49,0.18-0.96,0.5-1.33c29.55-33.24,45.17-70.74,45.17-108.46c0-1.1,0.9-2,2-2s2,0.9,2,2v568.14
				c0,38.71-15.97,77.14-46.18,111.12C891.98,919.25,891.44,919.48,890.88,919.48z M892.88,350.1v562.03
				c27.29-32.23,41.67-68.23,41.67-104.44V273.11C928.12,300,914.03,326.14,892.88,350.1z"/>
		</g>
		<g>
			<path class="st7" d="M890.88,349.34v568.14l-22.86-7.6V648.47L557.62,546.76c0-18.06,0-289.52,0-308.22L890.88,349.34z"/>
			<path class="st1" d="M890.88,919.48c-0.21,0-0.42-0.03-0.63-0.1l-22.86-7.6c-0.82-0.27-1.37-1.04-1.37-1.9V649.92L556.99,548.66
				c-0.82-0.27-1.38-1.04-1.38-1.9V238.54c0-0.64,0.31-1.25,0.83-1.62c0.52-0.38,1.19-0.48,1.8-0.28l333.26,110.8
				c0.82,0.27,1.37,1.04,1.37,1.9v568.14c0,0.64-0.31,1.25-0.83,1.62C891.7,919.35,891.29,919.48,890.88,919.48z M870.01,908.44
				l18.86,6.27V350.78L559.62,241.32v304l309.02,101.25c0.82,0.27,1.38,1.04,1.38,1.9V908.44z"/>
		</g>
		<path class="st3" d="M890.88,923.51c-0.49,0-0.98-0.06-1.47-0.19c-0.1-0.02-0.2-0.05-0.29-0.08c-0.05-0.01-0.09-0.03-0.14-0.04
			l-22.86-7.6c-2.47-0.82-4.13-3.12-4.13-5.72V652.83L555.74,552.49c-2.48-0.81-4.15-3.11-4.15-5.73V238.54
			c0-0.2,0.01-0.42,0.04-0.63c0.02-0.18,0.04-0.35,0.08-0.53c0.01-0.03,0.01-0.07,0.02-0.1c0.05-0.21,0.11-0.42,0.17-0.62
			c0.08-0.24,0.16-0.45,0.26-0.66c0.1-0.21,0.19-0.37,0.28-0.52c0.1-0.18,0.21-0.35,0.34-0.52c46.81-62.64,78.86-105.62,102.25-137
			c27.69-37.15,41.59-55.79,48.76-65.13c7.33-9.55,8.64-11.14,12.12-11.32c0.85-0.04,2.26,0.06,3.68,0.96
			C832.92,54.81,913.95,120,936.43,196.97c4.48,15.35,6.55,30.97,6.15,46.44v564.27c0,20.77-4.39,41.41-13.05,61.34
			c-7.92,18.24-19.41,35.89-34.15,52.46c-0.28,0.32-0.61,0.62-0.98,0.88l0,0c-0.06,0.04-0.13,0.09-0.19,0.13
			c-0.39,0.26-0.82,0.48-1.28,0.64c-0.1,0.04-0.27,0.09-0.38,0.12C891.99,923.43,891.43,923.51,890.88,923.51z M890.55,918.46
			L890.55,918.46L890.55,918.46z M887.91,914.83c-0.01,0.01-0.02,0.02-0.03,0.03C887.9,914.85,887.91,914.84,887.91,914.83z
			 M871.99,907.02l17.64,5.86c13.21-15.22,23.54-31.3,30.73-47.84c8.11-18.67,12.22-37.96,12.22-57.35V243.35c0-0.04,0-0.09,0-0.13
			c0.38-14.45-1.55-29.07-5.75-43.44c0,0,0,0,0,0c-21.5-73.61-99.87-136.22-209.77-167.63c-4.09,4.84-17.33,22.59-54.01,71.79
			c-23.27,31.21-55.08,73.88-101.45,135.93v304.02l306.95,100.58c2.05,0.67,3.44,2.59,3.44,4.75V907.02z"/>
	</g>
	<g>
		<g>
			<path class="st4" d="M868.01,648.47c0,9.96,0,276.13,0,284.07c-135.61,152.7-489.65,160.69-645.23,17.65
				c0-12.61,0-269.74,0-284.07C378.7,809.46,732.68,800.86,868.01,648.47z"/>
			<path class="st3" d="M536.65,1054.47c-55.3,0-109.97-7.22-159.79-21.21c-62.8-17.64-116.55-45.86-155.44-81.61
				c-0.41-0.38-0.65-0.91-0.65-1.47V666.11c0-0.79,0.47-1.51,1.2-1.83c0.73-0.32,1.57-0.18,2.16,0.36
				c76.43,70.27,205.11,108.02,344.22,100.97c126.51-6.41,237.97-50.69,298.16-118.47c0.55-0.62,1.43-0.84,2.21-0.54
				c0.78,0.3,1.29,1.04,1.29,1.87v284.07c0,0.49-0.18,0.96-0.5,1.33c-31.6,35.58-75.36,64.27-130.07,85.26
				c-50.83,19.51-109.87,31.45-170.72,34.53C558.03,1054.21,547.33,1054.47,536.65,1054.47z M224.78,949.3
				c76.5,69.89,204.92,107.41,343.74,100.37c127.95-6.48,236.32-49.44,297.49-117.89V653.65c-31.28,33.78-73.84,61.15-126.59,81.39
				c-50.89,19.53-109.98,31.48-170.87,34.57c-66.03,3.34-132.32-3.7-191.69-20.38c-60.99-17.13-113.46-44.27-152.09-78.61V949.3z"/>
		</g>
		<g>
			<path class="st0" d="M868.01,648.47c-132.75,149.49-485.72,164.31-645.23,17.65c10.59-4.25,289.56-116.32,314.05-126.16
				C573.74,552.04,845.83,641.2,868.01,648.47z"/>
			<path class="st1" d="M534.33,770.7c-126.42,0-241.67-37.61-312.91-103.11c-0.51-0.46-0.74-1.16-0.61-1.83s0.58-1.24,1.22-1.5
				c10.59-4.25,289.56-116.32,314.05-126.16c0.44-0.17,0.92-0.19,1.37-0.04c28.3,9.27,194.82,63.83,281,92.07l50.19,16.45
				c0.64,0.21,1.13,0.73,1.31,1.38c0.18,0.65,0.01,1.35-0.44,1.85c-31.4,35.36-75.22,64-130.24,85.13
				c-51.47,19.76-111.07,31.85-172.36,34.95C555.98,770.42,545.11,770.7,534.33,770.7z M226.48,666.78
				c76.8,69,203.68,106.02,340.22,99.1c126.01-6.38,237.01-49.86,297.77-116.46l-47.27-15.49c-85.49-28.01-250.08-81.94-280.3-91.84
				C509.65,553.03,258.15,654.06,226.48,666.78z"/>
		</g>
		<path class="st3" d="M536.65,1058.5c-55.48,0-111.11-7.39-160.87-21.36c-30.99-8.7-59.85-19.93-85.8-33.38
			c-27.14-14.07-51.13-30.6-71.28-49.14c-1.24-1.14-1.95-2.75-1.95-4.44V666.11c0-0.17,0.01-0.36,0.03-0.54
			c0.01-0.18,0.04-0.37,0.07-0.53c0.04-0.23,0.09-0.44,0.16-0.65c0.04-0.13,0.08-0.26,0.13-0.39c0.1-0.27,0.24-0.58,0.41-0.87
			c0.15-0.25,0.25-0.41,0.37-0.57c0.16-0.22,0.38-0.48,0.63-0.73c0.13-0.14,0.31-0.3,0.5-0.45c0.21-0.17,0.46-0.33,0.74-0.49
			c0.17-0.1,0.34-0.19,0.51-0.27c0.05-0.02,0.1-0.04,0.15-0.06c0.03-0.01,0.06-0.03,0.09-0.04l102.56-41.2
			c85.83-34.48,196.47-78.93,211.49-84.96c1.32-0.53,2.77-0.57,4.11-0.14c23.19,7.6,139.1,45.58,227.64,74.59l103.56,33.93
			c0.04,0.01,0.08,0.03,0.12,0.04c0.05,0.02,0.1,0.04,0.15,0.05l0,0c0.02,0.01,0.04,0.02,0.06,0.03c0.04,0.02,0.08,0.03,0.13,0.05
			l0,0c0.13,0.06,0.26,0.12,0.39,0.19c0.28,0.14,0.53,0.3,0.78,0.47c0.19,0.14,0.34,0.26,0.48,0.39c0.3,0.27,0.56,0.55,0.79,0.84
			c0.07,0.1,0.2,0.28,0.27,0.38c0.22,0.35,0.38,0.67,0.52,1c0.02,0.04,0.03,0.08,0.05,0.12c0.08,0.2,0.15,0.41,0.21,0.62
			c0,0,0,0,0,0.01c0.11,0.42,0.18,0.86,0.2,1.29c0,0.08,0.01,0.17,0.01,0.25v284.07c0,1.47-0.54,2.88-1.51,3.99
			c-16.22,18.26-35.94,34.98-58.64,49.69c-21.7,14.07-46.27,26.41-73.01,36.67c-51.23,19.66-110.69,31.69-171.96,34.79
			C558.24,1058.23,547.38,1058.5,536.65,1058.5z M226.75,948.43c19.24,17.46,42.05,33.08,67.83,46.45
			c25.34,13.14,53.56,24.12,83.9,32.63c48.89,13.73,103.59,20.99,158.17,20.99c10.56,0,21.25-0.27,31.77-0.8
			c60.23-3.05,118.63-14.86,168.88-34.14c26.09-10.02,50.04-22.04,71.16-35.73c21.47-13.92,40.17-29.66,55.58-46.8V651.35
			l-100.82-33.04c-86.9-28.47-200.18-65.59-226.25-74.13c-19.28,7.75-126.5,50.82-210.15,84.42l-100.07,40.2V948.43z M226.76,666.05
			c0,0.01,0,0.02,0,0.03C226.76,666.07,226.76,666.06,226.76,666.05z M216.76,665.95C216.76,665.96,216.76,665.96,216.76,665.95
			C216.76,665.96,216.76,665.96,216.76,665.95z M874.04,648.46L874.04,648.46L874.04,648.46z M871.08,643.3c0,0,0.01,0,0.01,0.01
			C871.08,643.3,871.08,643.3,871.08,643.3z M871.07,643.29C871.07,643.29,871.07,643.29,871.07,643.29
			C871.07,643.29,871.07,643.29,871.07,643.29z M871.05,643.28C871.06,643.28,871.06,643.28,871.05,643.28
			C871.06,643.28,871.06,643.28,871.05,643.28z"/>
	</g>
</g>
</svg>
